<svg xmlns="http://www.w3.org/2000/svg" x="0px" y="0px"
width="96" height="96"
viewBox="0 0 172 172"
style=" fill:#000000;"><defs><linearGradient x1="86" y1="23.59625" x2="86" y2="150.74273" gradientUnits="userSpaceOnUse" id="color-1_44020_gr1"><stop offset="0" stop-color="#1a6dff"></stop><stop offset="1" stop-color="#c822ff"></stop></linearGradient><linearGradient x1="65.19875" y1="62.8875" x2="65.19875" y2="76.755" gradientUnits="userSpaceOnUse" id="color-2_44020_gr2"><stop offset="0" stop-color="#8ab4ff"></stop><stop offset="1" stop-color="#e492ff"></stop></linearGradient><linearGradient x1="92.93375" y1="67.51" x2="92.93375" y2="72.1325" gradientUnits="userSpaceOnUse" id="color-3_44020_gr3"><stop offset="0" stop-color="#8ab4ff"></stop><stop offset="1" stop-color="#e492ff"></stop></linearGradient><linearGradient x1="65.19875" y1="81.3775" x2="65.19875" y2="95.245" gradientUnits="userSpaceOnUse" id="color-4_44020_gr4"><stop offset="0" stop-color="#8ab4ff"></stop><stop offset="1" stop-color="#e492ff"></stop></linearGradient><linearGradient x1="92.93375" y1="86" x2="92.93375" y2="90.6225" gradientUnits="userSpaceOnUse" id="color-5_44020_gr5"><stop offset="0" stop-color="#8ab4ff"></stop><stop offset="1" stop-color="#e492ff"></stop></linearGradient><linearGradient x1="65.19875" y1="99.8675" x2="65.19875" y2="113.735" gradientUnits="userSpaceOnUse" id="color-6_44020_gr6"><stop offset="0" stop-color="#8ab4ff"></stop><stop offset="1" stop-color="#e492ff"></stop></linearGradient><linearGradient x1="92.93375" y1="104.49" x2="92.93375" y2="109.1125" gradientUnits="userSpaceOnUse" id="color-7_44020_gr7"><stop offset="0" stop-color="#8ab4ff"></stop><stop offset="1" stop-color="#e492ff"></stop></linearGradient></defs><g fill="none" fill-rule="nonzero" stroke="none" stroke-width="1" stroke-linecap="butt" stroke-linejoin="miter" stroke-miterlimit="10" stroke-dasharray="" stroke-dashoffset="0" font-family="none" font-weight="none" font-size="none" text-anchor="none" style="mix-blend-mode: normal"><path d="M0,172v-172h172v172z" fill="none"></path><path d="M86,172c-47.49649,0 -86,-38.50351 -86,-86v0c0,-47.49649 38.50351,-86 86,-86v0c47.49649,0 86,38.50351 86,86v0c0,47.49649 -38.50351,86 -86,86z" fill="#e4e7ed"></path><g><path d="M130.19341,48.3428l-20.40371,-20.40371c-1.30817,-1.30817 -3.05085,-2.03159 -4.90447,-2.03159h-58.17647c-3.82281,0 -6.93375,3.11094 -6.93375,6.93375v92.45v4.6225v9.245c0,3.82281 3.11094,6.93375 6.93375,6.93375h78.5825c3.82281,0 6.93375,-3.11094 6.93375,-6.93375v-9.245v-4.6225v-72.04628c0,-1.85131 -0.72111,-3.59399 -2.03159,-4.90216zM124.33439,49.02h-12.91064c-1.2735,0 -2.31125,-1.03544 -2.31125,-2.31125v-12.91064zM125.29125,141.47h-78.5825c-1.2735,0 -2.31125,-1.03544 -2.31125,-2.31125v-2.73883c0.72573,0.26117 1.49769,0.42758 2.31125,0.42758h78.5825c0.81356,0 1.58552,-0.16641 2.31125,-0.42527v2.73652c0,1.27581 -1.03775,2.31125 -2.31125,2.31125zM127.6025,129.91375c0,1.27581 -1.03775,2.31125 -2.31125,2.31125h-78.5825c-1.2735,0 -2.31125,-1.03544 -2.31125,-2.31125v-4.6225v-92.45c0,-1.27581 1.03775,-2.31125 2.31125,-2.31125h57.78125v16.17875c0,3.82281 3.11094,6.93375 6.93375,6.93375h16.17875v71.64875z" fill="url(#color-1_44020_gr1)"></path><path d="M65.19875,62.8875c-3.82281,0 -6.93375,3.11094 -6.93375,6.93375c0,3.82281 3.11094,6.93375 6.93375,6.93375c3.82281,0 6.93375,-3.11094 6.93375,-6.93375c0,-3.82281 -3.11094,-6.93375 -6.93375,-6.93375zM65.19875,72.1325c-1.2735,0 -2.31125,-1.03775 -2.31125,-2.31125c0,-1.2735 1.03775,-2.31125 2.31125,-2.31125c1.2735,0 2.31125,1.03775 2.31125,2.31125c0,1.2735 -1.03775,2.31125 -2.31125,2.31125z" fill="url(#color-2_44020_gr2)"></path><path d="M76.755,67.51h32.3575v4.6225h-32.3575z" fill="url(#color-3_44020_gr3)"></path><path d="M65.19875,81.3775c-3.82281,0 -6.93375,3.11094 -6.93375,6.93375c0,3.82281 3.11094,6.93375 6.93375,6.93375c3.82281,0 6.93375,-3.11094 6.93375,-6.93375c0,-3.82281 -3.11094,-6.93375 -6.93375,-6.93375zM65.19875,90.6225c-1.2735,0 -2.31125,-1.03775 -2.31125,-2.31125c0,-1.2735 1.03775,-2.31125 2.31125,-2.31125c1.2735,0 2.31125,1.03775 2.31125,2.31125c0,1.2735 -1.03775,2.31125 -2.31125,2.31125z" fill="url(#color-4_44020_gr4)"></path><path d="M76.755,86h32.3575v4.6225h-32.3575z" fill="url(#color-5_44020_gr5)"></path><path d="M65.19875,99.8675c-3.82281,0 -6.93375,3.11094 -6.93375,6.93375c0,3.82281 3.11094,6.93375 6.93375,6.93375c3.82281,0 6.93375,-3.11094 6.93375,-6.93375c0,-3.82281 -3.11094,-6.93375 -6.93375,-6.93375zM65.19875,109.1125c-1.2735,0 -2.31125,-1.03775 -2.31125,-2.31125c0,-1.2735 1.03775,-2.31125 2.31125,-2.31125c1.2735,0 2.31125,1.03775 2.31125,2.31125c0,1.2735 -1.03775,2.31125 -2.31125,2.31125z" fill="url(#color-6_44020_gr6)"></path><path d="M76.755,104.49h32.3575v4.6225h-32.3575z" fill="url(#color-7_44020_gr7)"></path></g></g></svg>