<svg xmlns="http://www.w3.org/2000/svg" x="0px" y="0px" width="50" height="50" viewBox="0 0 50 50"
    style=" fill:#000000;">
    <path
        d="M 11 0 C 10.488281 0 9.984375 0.203125 9.59375 0.59375 L 0.59375 9.59375 C -0.1875 10.375 -0.1875 11.625 0.59375 12.40625 L 9.59375 21.40625 C 9.984375 21.796875 10.488281 22 11 22 C 11.511719 22 12.015625 21.796875 12.40625 21.40625 C 13.1875 20.625 13.1875 19.375 12.40625 18.59375 L 6.84375 13 L 32 13 C 39.722656 13 46 19.28125 46 27 C 46 34.722656 39.722656 41 32 41 L 16 41 L 16 45 L 33 45 L 33 44.9375 C 42.460938 44.414063 50 36.589844 50 27 C 50 17.601563 42.757813 9.886719 33.5625 9.09375 C 33.382813 9.039063 33.195313 9 33 9 L 6.84375 9 L 12.40625 3.40625 C 13.1875 2.625 13.1875 1.375 12.40625 0.59375 C 12.015625 0.203125 11.511719 0 11 0 Z M 0 41 L 0 45 L 2 45 L 2 41 Z M 4 41 L 4 45 L 6 45 L 6 41 Z M 8 41 L 8 45 L 10 45 L 10 41 Z M 12 41 L 12 45 L 14 45 L 14 41 Z">
    </path>
</svg>