<svg xmlns="http://www.w3.org/2000/svg" x="0px" y="0px" width="96" height="96" viewBox="0 0 172 172"
    style=" fill:#000000;">
    <defs>
        <linearGradient x1="86" y1="53.06469" x2="86" y2="68.08781" gradientUnits="userSpaceOnUse"
            id="color-1_49408_gr1">
            <stop offset="0" stop-color="#94b5ff"></stop>
            <stop offset="1" stop-color="#e492ff"></stop>
        </linearGradient>
        <linearGradient x1="99.8675" y1="103.14254" x2="99.8675" y2="117.58785" gradientUnits="userSpaceOnUse"
            id="color-2_49408_gr2">
            <stop offset="0" stop-color="#94b5ff"></stop>
            <stop offset="1" stop-color="#e492ff"></stop>
        </linearGradient>
        <linearGradient x1="72.1325" y1="103.14254" x2="72.1325" y2="117.58785" gradientUnits="userSpaceOnUse"
            id="color-3_49408_gr3">
            <stop offset="0" stop-color="#94b5ff"></stop>
            <stop offset="1" stop-color="#e492ff"></stop>
        </linearGradient>
        <linearGradient x1="86" y1="119.12715" x2="86" y2="130.725" gradientUnits="userSpaceOnUse"
            id="color-4_49408_gr4">
            <stop offset="0" stop-color="#94b5ff"></stop>
            <stop offset="1" stop-color="#e492ff"></stop>
        </linearGradient>
        <linearGradient x1="86" y1="19.55156" x2="86" y2="148.82209" gradientUnits="userSpaceOnUse"
            id="color-5_49408_gr5">
            <stop offset="0" stop-color="#2469ff"></stop>
            <stop offset="1" stop-color="#c822ff"></stop>
        </linearGradient>
        <linearGradient x1="86" y1="19.55156" x2="86" y2="148.82209" gradientUnits="userSpaceOnUse"
            id="color-6_49408_gr6">
            <stop offset="0" stop-color="#2469ff"></stop>
            <stop offset="1" stop-color="#c822ff"></stop>
        </linearGradient>
        <linearGradient x1="99.8675" y1="19.55156" x2="99.8675" y2="148.82209" gradientUnits="userSpaceOnUse"
            id="color-7_49408_gr7">
            <stop offset="0" stop-color="#2469ff"></stop>
            <stop offset="1" stop-color="#c822ff"></stop>
        </linearGradient>
        <linearGradient x1="72.1325" y1="19.55156" x2="72.1325" y2="148.82209" gradientUnits="userSpaceOnUse"
            id="color-8_49408_gr8">
            <stop offset="0" stop-color="#2469ff"></stop>
            <stop offset="1" stop-color="#c822ff"></stop>
        </linearGradient>
    </defs>
    <g fill="none" fill-rule="nonzero" stroke="none" stroke-width="1" stroke-linecap="butt" stroke-linejoin="miter"
        stroke-miterlimit="10" stroke-dasharray="" stroke-dashoffset="0" font-family="none" font-weight="none"
        font-size="none" text-anchor="none" style="mix-blend-mode: normal">
        <path d="M0,172v-172h172v172z" fill="none"></path>
        <path
            d="M86,172c-47.49649,0 -86,-38.50351 -86,-86v0c0,-47.49649 38.50351,-86 86,-86v0c47.49649,0 86,38.50351 86,86v0c0,47.49649 -38.50351,86 -86,86z"
            fill="#e4e7ed"></path>
        <g>
            <path
                d="M86,53.6425c-3.8294,0 -6.93375,3.10435 -6.93375,6.93375c0,3.8294 3.10435,6.93375 6.93375,6.93375c3.8294,0 6.93375,-3.10435 6.93375,-6.93375c0,-3.8294 -3.10435,-6.93375 -6.93375,-6.93375z"
                fill="url(#color-1_49408_gr1)"></path>
            <path
                d="M99.8675,104.49c-3.19117,0 -5.77813,2.58695 -5.77813,5.77813c0,3.19117 2.58695,5.77812 5.77813,5.77812c3.19117,0 5.77813,-2.58695 5.77813,-5.77812c0,-3.19117 -2.58695,-5.77813 -5.77813,-5.77813z"
                fill="url(#color-2_49408_gr2)"></path>
            <path
                d="M72.1325,104.49c-3.19117,0 -5.77812,2.58695 -5.77812,5.77813c0,3.19117 2.58695,5.77812 5.77812,5.77812c3.19117,0 5.77813,-2.58695 5.77813,-5.77812c0,-3.19117 -2.58695,-5.77813 -5.77813,-5.77813z"
                fill="url(#color-3_49408_gr3)"></path>
            <path d="M76.755,120.66875c0,5.10555 4.13945,9.245 9.245,9.245c5.10555,0 9.245,-4.13945 9.245,-9.245z"
                fill="url(#color-4_49408_gr4)"></path>
            <path
                d="M134.53625,106.80125c0,-5.11942 -2.7943,-9.58938 -6.93375,-11.99077v-6.92451c2.68567,-0.95686 4.6225,-3.49923 4.6225,-6.50848c0,-3.00925 -1.93683,-5.55162 -4.6225,-6.50848v-2.73652c0,-16.67105 -10.16026,-31.84209 -25.42375,-38.30435v-0.9869c0,-3.82281 -3.11094,-6.93375 -6.93375,-6.93375h-18.49c-3.82281,0 -6.93375,3.11094 -6.93375,6.93375v0.9869c-15.26349,6.46226 -25.42375,21.6333 -25.42375,38.30435v2.73652c-2.68567,0.95686 -4.6225,3.49923 -4.6225,6.50848c0,3.00925 1.93683,5.55162 4.6225,6.50848v6.9245c-4.13945,2.40139 -6.93375,6.87135 -6.93375,11.99077c0,7.49769 5.98152,13.60864 13.42374,13.84439c4.86056,14.75502 18.75117,25.44686 35.11251,25.44686c16.36134,0 30.25195,-10.69184 35.11251,-25.44686c7.44222,-0.23575 13.42374,-6.34669 13.42374,-13.84439zM113.735,53.6425c0,-1.27581 1.03544,-2.31125 2.31125,-2.31125h0.47612c2.82435,4.14638 4.79815,8.86364 5.76657,13.8675h-6.24269c-1.27581,0 -2.31125,-1.03544 -2.31125,-2.31125zM74.44375,32.84125c0,-1.27581 1.03544,-2.31125 2.31125,-2.31125h18.49c1.27581,0 2.31125,1.03544 2.31125,2.31125v2.31125c0,3.82281 -3.11094,6.93375 -6.93375,6.93375h-9.245c-3.82281,0 -6.93375,-3.11094 -6.93375,-6.93375zM70.40369,38.59626c1.47689,4.68259 5.80817,8.11249 10.97382,8.11249h9.245c5.16564,0 9.49693,-3.4299 10.97382,-8.11249c4.50694,2.10324 8.4638,5.08475 11.71804,8.67874c-2.46841,1.06086 -4.20185,3.5131 -4.20185,6.36749v9.245c0,3.82281 3.11094,6.93375 6.93375,6.93375h6.84361c0.04854,0.76734 0.09014,1.53698 0.09014,2.31125v2.31125h-73.96v-2.31125c0,-0.77427 0.0416,-1.54391 0.09014,-2.31125h6.84361c3.82281,0 6.93375,-3.11094 6.93375,-6.93375v-9.245c0,-2.85439 -1.73344,-5.30663 -4.20185,-6.3698c3.25424,-3.59168 7.2111,-6.57319 11.71804,-8.67643zM55.95375,51.33125c1.27581,0 2.31125,1.03544 2.31125,2.31125v9.245c0,1.27581 -1.03544,2.31125 -2.31125,2.31125h-6.24269c0.96841,-5.00386 2.94222,-9.72112 5.76657,-13.8675zM46.70875,79.06625h78.5825c1.27581,0 2.31125,1.03544 2.31125,2.31125c0,1.27581 -1.03544,2.31125 -2.31125,2.31125h-78.5825c-1.27581,0 -2.31125,-1.03544 -2.31125,-2.31125c0,-1.27581 1.03544,-2.31125 2.31125,-2.31125zM42.08625,106.80125c0,-4.29661 2.9584,-7.88367 6.93375,-8.9168v11.22805c0,2.31356 0.24037,4.56934 0.64946,6.76503c-4.30586,-0.78582 -7.58321,-4.54623 -7.58321,-9.07628zM97.55625,139.29974v-2.45224h-4.6225v3.85517c-1.50462,0.33051 -3.04854,0.53852 -4.6225,0.64946v-6.81588h-4.6225v6.81588c-1.57396,-0.11094 -3.11788,-0.31895 -4.6225,-0.64946v-3.85517h-4.6225v2.45224c-12.14331,-4.66641 -20.80125,-16.41912 -20.80125,-30.18724v-20.80125h64.715v20.80125c0,13.76812 -8.65794,25.52082 -20.80125,30.18724zM122.33054,115.87753c0.40909,-2.19569 0.64946,-4.45147 0.64946,-6.76503v-11.22805c3.97535,1.03313 6.93375,4.62019 6.93375,8.9168c0,4.53005 -3.27735,8.29045 -7.58321,9.07628z"
                fill="url(#color-5_49408_gr5)"></path>
            <path
                d="M86,69.82125c5.09862,0 9.245,-4.14638 9.245,-9.245c0,-5.09862 -4.14638,-9.245 -9.245,-9.245c-5.09862,0 -9.245,4.14638 -9.245,9.245c0,5.09862 4.14638,9.245 9.245,9.245zM86,55.95375c2.54931,0 4.6225,2.07319 4.6225,4.6225c0,2.54931 -2.07319,4.6225 -4.6225,4.6225c-2.54931,0 -4.6225,-2.07319 -4.6225,-4.6225c0,-2.54931 2.07319,-4.6225 4.6225,-4.6225z"
                fill="url(#color-6_49408_gr6)"></path>
            <path d="M92.93375,92.93375h13.8675v4.6225h-13.8675z" fill="url(#color-7_49408_gr7)"></path>
            <path d="M65.19875,92.93375h13.8675v4.6225h-13.8675z" fill="url(#color-8_49408_gr8)"></path>
        </g>
    </g>
</svg>