<svg xmlns="http://www.w3.org/2000/svg" x="0px" y="0px" width="96" height="96" viewBox="0 0 172 172"
    style=" fill:#000000;">
    <defs>
        <linearGradient x1="122.79188" y1="118.3575" x2="122.79188" y2="127.6025" gradientUnits="userSpaceOnUse"
            id="color-1_QzjUKgN0uKQL_gr1">
            <stop offset="0" stop-color="#92b5ff"></stop>
            <stop offset="1" stop-color="#e492ff"></stop>
        </linearGradient>
        <linearGradient x1="132.03688" y1="118.3575" x2="132.03688" y2="127.6025" gradientUnits="userSpaceOnUse"
            id="color-2_QzjUKgN0uKQL_gr2">
            <stop offset="0" stop-color="#92b5ff"></stop>
            <stop offset="1" stop-color="#e492ff"></stop>
        </linearGradient>
        <linearGradient x1="127.41438" y1="132.225" x2="127.41438" y2="136.8475" gradientUnits="userSpaceOnUse"
            id="color-3_QzjUKgN0uKQL_gr3">
            <stop offset="0" stop-color="#92b5ff"></stop>
            <stop offset="1" stop-color="#e492ff"></stop>
        </linearGradient>
        <linearGradient x1="76.56688" y1="73.65793" x2="76.56688" y2="82.10554" gradientUnits="userSpaceOnUse"
            id="color-4_QzjUKgN0uKQL_gr4">
            <stop offset="0" stop-color="#92b5ff"></stop>
            <stop offset="1" stop-color="#e492ff"></stop>
        </linearGradient>
        <linearGradient x1="55.76563" y1="73.65793" x2="55.76563" y2="82.10554" gradientUnits="userSpaceOnUse"
            id="color-5_QzjUKgN0uKQL_gr5">
            <stop offset="0" stop-color="#92b5ff"></stop>
            <stop offset="1" stop-color="#e492ff"></stop>
        </linearGradient>
        <linearGradient x1="66.16625" y1="87.1302" x2="66.16625" y2="96.67104" gradientUnits="userSpaceOnUse"
            id="color-6_QzjUKgN0uKQL_gr6">
            <stop offset="0" stop-color="#92b5ff"></stop>
            <stop offset="1" stop-color="#e492ff"></stop>
        </linearGradient>
        <linearGradient x1="84.65625" y1="27.0377" x2="84.65625" y2="145.11253" gradientUnits="userSpaceOnUse"
            id="color-7_QzjUKgN0uKQL_gr7">
            <stop offset="0" stop-color="#226aff"></stop>
            <stop offset="1" stop-color="#c822ff"></stop>
        </linearGradient>
    </defs>
    <g transform="">
        <g fill="none" fill-rule="nonzero" stroke="none" stroke-width="1" stroke-linecap="butt" stroke-linejoin="miter"
            stroke-miterlimit="10" stroke-dasharray="" stroke-dashoffset="0" font-family="none" font-weight="none"
            font-size="none" text-anchor="none" style="mix-blend-mode: normal">
            <path d="M0,172v-172h172v172z" fill="none"></path>
            <path
                d="M86,172c-47.49649,0 -86,-38.50351 -86,-86v0c0,-47.49649 38.50351,-86 86,-86h0c47.49649,0 86,38.50351 86,86v0c0,47.49649 -38.50351,86 -86,86z"
                fill="#e4e7ed"></path>
            <path d="" fill="none"></path>
            <g id="Layer_1">
                <path d="M122.79188,118.3575l-2.31125,4.6225v4.6225h4.6225v-4.6225z"
                    fill="url(#color-1_QzjUKgN0uKQL_gr1)"></path>
                <path d="M132.03688,118.3575l-2.31125,4.6225v4.6225h4.6225v-4.6225z"
                    fill="url(#color-2_QzjUKgN0uKQL_gr2)"></path>
                <path d="M120.48063,132.225h13.8675v4.6225h-13.8675z" fill="url(#color-3_QzjUKgN0uKQL_gr3)"></path>
                <circle cx="33.12791" cy="34.2093" transform="scale(2.31125,2.31125)" r="2"
                    fill="url(#color-4_QzjUKgN0uKQL_gr4)"></circle>
                <circle cx="24.12791" cy="34.2093" transform="scale(2.31125,2.31125)" r="2"
                    fill="url(#color-5_QzjUKgN0uKQL_gr5)"></circle>
                <path
                    d="M66.16625,97.55625v0c-4.39137,0 -8.08937,-3.698 -8.08937,-8.08938v-1.15563h16.17875v1.15563c0,4.39138 -3.698,8.08938 -8.08938,8.08938z"
                    fill="url(#color-6_QzjUKgN0uKQL_gr6)"></path>
                <path
                    d="M142.89975,103.5655c-1.15562,-2.31125 -3.46688,-3.698 -6.24037,-3.698h-38.829c-1.849,-2.31125 -3.92913,-4.39138 -6.24038,-6.24038c0.46225,-0.69338 0.69338,-1.38675 0.9245,-2.08012h1.15563c4.39137,0 8.08938,-3.698 8.08938,-8.08938v-0.46225c0,-4.16025 -3.00463,-7.396 -6.93375,-7.85825v-7.62713h2.08012c0.9245,0 1.61788,-0.46225 2.08013,-1.38675c0.46225,-0.9245 0.23112,-1.849 -0.23113,-2.54237c-1.15563,-1.38675 -2.54238,-2.7735 -3.92913,-3.92912v-0.23112v-10.40062c0,-11.55625 -9.245,-20.80125 -20.80125,-20.80125h-0.69338c-0.69337,-1.38675 -2.31125,-2.31125 -3.92912,-2.31125h-6.93375c-1.61787,0 -3.23575,0.9245 -3.92912,2.31125h-0.46225c-11.55625,0 -20.80125,9.245 -20.80125,20.80125v10.40062c0,0 0,0 0,0.23112c-1.38675,1.15562 -2.7735,2.54238 -3.92912,3.92913c-0.46225,0.69337 -0.69338,1.61787 -0.23113,2.54237c0.46225,0.9245 1.15563,1.38675 2.08013,1.38675h2.08013v7.62713c-3.92912,0.46225 -6.93375,3.92912 -6.93375,7.85825v0.46225c0,4.39138 3.698,8.08938 8.08937,8.08938h1.15563c0.23112,0.69337 0.69337,1.38675 0.9245,2.08012c-9.47612,7.62713 -14.792,18.95225 -14.792,31.20188v12.0185h62.40375v2.31125c0,3.92912 3.00463,6.93375 6.93375,6.93375h41.6025c3.92912,0 6.93375,-3.00462 6.93375,-6.93375v-32.3575c0,-1.15563 -0.23113,-2.08013 -0.69338,-3.23575zM120.48063,104.49v4.6225h-9.245v-4.6225zM92.28338,100.32975c-0.9245,0.46225 -1.849,1.15563 -2.54238,2.08012v0l-12.24962,12.48075l-6.4715,-6.4715c7.396,-1.15563 14.09863,-5.31587 18.49,-11.094c0.9245,1.15563 1.849,2.08012 2.7735,3.00463zM97.36813,82.99538v0.46225c0,1.849 -1.38675,3.23575 -3.00463,3.46688c0.46225,-2.08012 0.69337,-4.39137 0.69337,-6.70262v-0.46225c1.38675,0.46225 2.31125,1.61787 2.31125,3.23575zM66.16625,53.6425c9.47612,0 18.25888,3.23575 24.9615,8.78275h-49.923c6.70262,-5.547 15.48538,-8.78275 24.9615,-8.78275zM62.69938,32.84125h6.93375c3.92912,0 6.93375,3.00463 6.93375,6.93375v10.40063c-3.46688,-0.69338 -6.93375,-1.15563 -10.40063,-1.15563c-3.46687,0 -6.93375,0.46225 -10.40062,1.15563v-10.40063c0,-3.92912 3.00463,-6.93375 6.93375,-6.93375zM90.43437,49.02v7.16488c-2.7735,-1.849 -6.00925,-3.46688 -9.245,-4.6225v-11.78738c0,-2.31125 -0.69338,-4.39138 -1.849,-6.00925c6.4715,2.08013 11.094,8.08938 11.094,15.25425zM41.89813,49.02c0,-7.16488 4.6225,-13.17413 11.094,-15.25425c-1.15563,1.61788 -1.849,3.698 -1.849,6.00925v11.78738c-3.23575,1.15563 -6.4715,2.7735 -9.245,4.6225zM90.43437,67.27888v12.71188c0,13.63637 -10.86287,24.49925 -24.26812,24.49925c-13.40525,0 -24.26812,-10.86288 -24.26812,-24.26813v-12.71188h48.53625zM34.96437,83.2265v-0.46225c0,-1.61787 0.9245,-2.7735 2.31125,-3.23575v0.46225c0,2.31125 0.23112,4.39137 0.69338,6.70263c-1.61788,0 -3.00463,-1.61788 -3.00463,-3.46688zM61.31263,108.65025l-6.4715,6.4715l-14.56088,-14.56087c0,0 0,0 -0.23112,0c0.9245,-0.9245 2.08013,-2.08012 3.00462,-3.00462c4.39138,5.77813 10.86288,9.70725 18.25888,11.094zM30.34188,132.225v-7.396c0,-7.62713 2.31125,-14.792 6.70262,-20.80125l15.94763,15.94762c0.46225,0.46225 1.15562,0.69338 1.61787,0.69338c0.69338,0 1.15563,-0.23113 1.61788,-0.69338l9.70725,-9.70725l9.70725,9.70725c0.46225,0.46225 0.9245,0.69338 1.61787,0.69338v0c0.69338,0 1.15563,-0.23113 1.61787,-0.69338l9.245,-9.245v21.49463zM138.97062,139.15875c0,1.38675 -0.9245,2.31125 -2.31125,2.31125h-41.6025c-1.38675,0 -2.31125,-0.9245 -2.31125,-2.31125v-32.3575c0,-1.38675 0.9245,-2.31125 2.31125,-2.31125h11.55625v4.6225c0,2.54237 2.08012,4.6225 4.6225,4.6225h9.245c2.54238,0 4.6225,-2.08012 4.6225,-4.6225v-4.6225h11.55625c1.38675,0 2.31125,0.9245 2.31125,2.31125z"
                    fill="url(#color-7_QzjUKgN0uKQL_gr7)"></path>
            </g>
            <path d="" fill="none"></path>
        </g>
    </g>
</svg>